<svg width="29" height="28" viewBox="0 0 29 28" fill="none" xmlns="http://www.w3.org/2000/svg">
<path d="M5.60763 28H22.7257C25.8175 28 28.3333 25.5138 28.3333 22.4583V5.54167C28.3333 2.48617 25.8175 0 22.7257 0H5.60763C2.51576 0 0 2.48617 0 5.54167V22.4583C0 25.5138 2.51576 28 5.60763 28ZM1.77083 5.54167C1.77083 3.451 3.49208 1.75 5.60763 1.75H22.7257C24.8412 1.75 26.5625 3.451 26.5625 5.54167V22.4583C26.5625 24.549 24.8412 26.25 22.7257 26.25H5.60763C3.49208 26.25 1.77083 24.549 1.77083 22.4583V5.54167Z" fill="white"/>
</svg>
